# xmcd CD database file
#
# Track frame offsets:
#	150
#	15585
#	30990
#	42059
#	59524
#	74440
#	88942
#	101960
#	117724
#	128949
#
# Disc length: 1963 seconds
#
# Revision: 1
# Processed by: cddbd v1.5.2PL0 Copyright (c) Steve Scherf et al.
# Submitted via: CDex 1.51
#
DISCID=8d07a90a
DTITLE=The Mamas and the Papas - California Dreamin'
DYEAR=2007
DGENRE=
TTITLE0=Monday, Monday
TTITLE1=Dedicated to the one I love
TTITLE2=California Dreamin'
TTITLE3=Creeque alley
TTITLE4=Straight shooter
TTITLE5=I saw her again
TTITLE6=Dream a little dream of me
TTITLE7=Sunday will never be the same
TTITLE8=Go where you wanna go
TTITLE9=Mississippi (Down on the Bayou)
EXTD=YEAR: 2007
EXTT0=
EXTT1=
EXTT2=
EXTT3=
EXTT4=
EXTT5=
EXTT6=
EXTT7=
EXTT8=
EXTT9=
PLAYORDER=
